<svg width="30" height="43" viewBox="0 0 30 43" fill="none" xmlns="http://www.w3.org/2000/svg">
<path d="M9.64286 34.2857H6.42857V15H9.64286V34.2857ZM16.6071 34.2857H13.3929V15H16.6071V34.2857ZM23.5714 34.2857H20.3571V15H23.5714V34.2857ZM25.7143 8.57143H21.4286V2.14286C21.4286 0.964286 20.4643 0 19.2857 0H10.7143C9.53571 0 8.57143 0.964286 8.57143 2.14286V8.57143H4.28571C1.92857 8.57143 0 10.5 0 12.8571V36.4286C0 38.7857 1.92857 40.7143 4.28571 40.7143C4.28571 41.8929 5.25 42.8571 6.42857 42.8571C7.60714 42.8571 8.57143 41.8929 8.57143 40.7143H21.4286C21.4286 41.8929 22.3929 42.8571 23.5714 42.8571C24.75 42.8571 25.7143 41.8929 25.7143 40.7143C28.0714 40.7143 30 38.7857 30 36.4286V12.8571C30 10.5 28.0714 8.57143 25.7143 8.57143ZM11.7857 3.21429H18.2143V8.57143H11.7857V3.21429ZM25.7143 36.4286H4.28571V12.8571H25.7143V36.4286Z" fill="#272727"/>
</svg>
