<svg width="91" height="68" viewBox="0 0 91 68" fill="none" xmlns="http://www.w3.org/2000/svg">
<path d="M10.512 35.0132C9.192 35.0132 7.86 34.9652 6.516 34.8692C5.172 34.7972 3.996 34.6292 2.988 34.3652V10.1372C3.516 10.0412 4.08 9.95716 4.68 9.88516C5.28 9.78916 5.892 9.71716 6.516 9.66916C7.14 9.62116 7.752 9.58516 8.352 9.56116C8.976 9.53716 9.564 9.52516 10.116 9.52516C11.628 9.52516 13.032 9.64516 14.328 9.88516C15.624 10.1012 16.74 10.4732 17.676 11.0012C18.636 11.5292 19.38 12.2252 19.908 13.0892C20.436 13.9532 20.7 15.0212 20.7 16.2932C20.7 17.4692 20.412 18.4772 19.836 19.3172C19.284 20.1572 18.504 20.8292 17.496 21.3332C19.008 21.8372 20.124 22.5812 20.844 23.5652C21.564 24.5492 21.924 25.7972 21.924 27.3092C21.924 29.8772 20.988 31.8092 19.116 33.1052C17.244 34.3772 14.376 35.0132 10.512 35.0132ZM7.452 23.4932V31.0892C7.956 31.1372 8.496 31.1732 9.072 31.1972C9.648 31.2212 10.176 31.2332 10.656 31.2332C11.592 31.2332 12.456 31.1732 13.248 31.0532C14.064 30.9332 14.76 30.7292 15.336 30.4412C15.936 30.1292 16.404 29.7212 16.74 29.2172C17.1 28.7132 17.28 28.0652 17.28 27.2732C17.28 25.8572 16.764 24.8732 15.732 24.3212C14.7 23.7692 13.272 23.4932 11.448 23.4932H7.452ZM7.452 19.9292H10.656C12.384 19.9292 13.74 19.6892 14.724 19.2092C15.708 18.7052 16.2 17.8172 16.2 16.5452C16.2 15.3452 15.684 14.4932 14.652 13.9892C13.644 13.4852 12.324 13.2332 10.692 13.2332C9.996 13.2332 9.372 13.2452 8.82 13.2692C8.292 13.2932 7.836 13.3292 7.452 13.3772V19.9292ZM32.9842 35.0852C31.6882 35.0612 30.6082 34.9172 29.7442 34.6532C28.9042 34.3892 28.2322 34.0172 27.7282 33.5372C27.2242 33.0332 26.8642 32.4212 26.6482 31.7012C26.4562 30.9572 26.3602 30.1172 26.3602 29.1812V7.50916L30.7162 6.78916V28.3532C30.7162 28.8812 30.7522 29.3252 30.8242 29.6852C30.9202 30.0452 31.0762 30.3572 31.2922 30.6212C31.5082 30.8612 31.7962 31.0532 32.1562 31.1972C32.5402 31.3172 33.0202 31.4132 33.5962 31.4852L32.9842 35.0852ZM43.7437 31.6652C45.0877 31.6652 46.1077 31.5932 46.8037 31.4492V26.6252C46.5637 26.5532 46.2157 26.4812 45.7597 26.4092C45.3037 26.3372 44.7997 26.3012 44.2477 26.3012C43.7677 26.3012 43.2757 26.3372 42.7717 26.4092C42.2917 26.4812 41.8477 26.6132 41.4397 26.8052C41.0557 26.9972 40.7437 27.2732 40.5037 27.6332C40.2637 27.9692 40.1437 28.4012 40.1437 28.9292C40.1437 29.9612 40.4677 30.6812 41.1157 31.0892C41.7637 31.4732 42.6397 31.6652 43.7437 31.6652ZM43.3837 15.4292C44.8237 15.4292 46.0357 15.6092 47.0197 15.9692C48.0037 16.3292 48.7837 16.8332 49.3597 17.4812C49.9597 18.1292 50.3797 18.9212 50.6197 19.8572C50.8837 20.7692 51.0157 21.7772 51.0157 22.8812V34.2932C50.3437 34.4372 49.3237 34.6052 47.9557 34.7972C46.6117 35.0132 45.0877 35.1212 43.3837 35.1212C42.2557 35.1212 41.2237 35.0132 40.2877 34.7972C39.3517 34.5812 38.5477 34.2332 37.8757 33.7532C37.2277 33.2732 36.7117 32.6492 36.3277 31.8812C35.9677 31.1132 35.7877 30.1652 35.7877 29.0372C35.7877 27.9572 35.9917 27.0452 36.3997 26.3012C36.8317 25.5572 37.4077 24.9572 38.1277 24.5012C38.8477 24.0212 39.6757 23.6852 40.6117 23.4932C41.5717 23.2772 42.5677 23.1692 43.5997 23.1692C44.0797 23.1692 44.5837 23.2052 45.1117 23.2772C45.6397 23.3252 46.2037 23.4212 46.8037 23.5652V22.8452C46.8037 22.3412 46.7437 21.8612 46.6237 21.4052C46.5037 20.9492 46.2877 20.5532 45.9757 20.2172C45.6877 19.8572 45.2917 19.5812 44.7877 19.3892C44.3077 19.1972 43.6957 19.1012 42.9517 19.1012C41.9437 19.1012 41.0197 19.1732 40.1797 19.3172C39.3397 19.4612 38.6557 19.6292 38.1277 19.8212L37.5877 16.2932C38.1397 16.1012 38.9437 15.9092 39.9997 15.7172C41.0557 15.5252 42.1837 15.4292 43.3837 15.4292ZM55.3061 25.3292C55.3061 23.9372 55.5221 22.6412 55.9541 21.4412C56.3861 20.2172 56.9981 19.1612 57.7901 18.2732C58.6061 17.3852 59.5901 16.6892 60.7421 16.1852C61.8941 15.6812 63.1901 15.4292 64.6301 15.4292C66.4061 15.4292 68.0861 15.7532 69.6701 16.4012L68.7341 19.9652C68.2301 19.7492 67.6541 19.5692 67.0061 19.4252C66.3821 19.2812 65.7101 19.2092 64.9901 19.2092C63.2861 19.2092 61.9901 19.7492 61.1021 20.8292C60.2141 21.8852 59.7701 23.3852 59.7701 25.3292C59.7701 27.2012 60.1901 28.6892 61.0301 29.7932C61.8701 30.8732 63.2861 31.4132 65.2781 31.4132C66.0221 31.4132 66.7541 31.3412 67.4741 31.1972C68.1941 31.0532 68.8181 30.8732 69.3461 30.6572L69.9581 34.2572C69.4781 34.4972 68.7461 34.7132 67.7621 34.9052C66.8021 35.0972 65.8061 35.1932 64.7741 35.1932C63.1661 35.1932 61.7621 34.9532 60.5621 34.4732C59.3861 33.9692 58.4021 33.2852 57.6101 32.4212C56.8421 31.5332 56.2661 30.4892 55.8821 29.2892C55.4981 28.0652 55.3061 26.7452 55.3061 25.3292ZM77.6866 23.2412C78.2386 22.6652 78.8266 22.0532 79.4506 21.4052C80.0746 20.7332 80.6866 20.0732 81.2866 19.4252C81.8866 18.7532 82.4506 18.1172 82.9786 17.5172C83.5306 16.8932 83.9986 16.3532 84.3826 15.8972H89.5306C88.3306 17.2412 87.0586 18.6332 85.7146 20.0732C84.3946 21.5132 83.0626 22.9172 81.7186 24.2852C82.4386 24.8852 83.1946 25.6172 83.9866 26.4812C84.7786 27.3212 85.5466 28.2212 86.2906 29.1812C87.0346 30.1412 87.7306 31.1012 88.3786 32.0612C89.0266 33.0212 89.5666 33.9092 89.9986 34.7252H84.9586C84.5266 33.9812 84.0226 33.2012 83.4466 32.3852C82.8946 31.5692 82.2946 30.7772 81.6466 30.0092C80.9986 29.2412 80.3386 28.5212 79.6666 27.8492C78.9946 27.1532 78.3346 26.5652 77.6866 26.0852V34.7252H73.3306V7.50916L77.6866 6.78916V23.2412Z" fill="white"/>
<path d="M47.568 40.816H47.184C45.2853 40.816 43.8027 41.296 42.736 42.256C41.6907 43.1947 41.168 44.8693 41.168 47.28C41.168 48.0693 41.2427 48.624 41.392 48.944C41.5413 49.2427 41.616 49.4133 41.616 49.456C40.464 49.456 39.6 49.2213 39.024 48.752C38.4693 48.2613 38.192 47.4613 38.192 46.352C38.192 44.8373 38.5653 43.4613 39.312 42.224C40.0587 40.9653 41.2427 39.952 42.864 39.184C44.5067 38.416 46.5867 38.032 49.104 38.032C50.512 38.032 52.0267 38.16 53.648 38.416C55.0133 38.6507 56.2293 38.768 57.296 38.768C58.6613 38.768 59.8987 38.544 61.008 38.096C60.9653 39.4827 60.6133 40.5067 59.952 41.168C59.2907 41.8293 58.3093 42.16 57.008 42.16C56.3253 42.16 55.6427 42.1067 54.96 42C54.2773 41.8933 53.3067 41.712 52.048 41.456L47.632 62H43.024L47.568 40.816ZM57.2463 62.192C56.0303 62.192 55.0169 61.776 54.2063 60.944C53.3956 60.112 52.9902 58.8107 52.9902 57.04C52.9902 55.4613 53.2996 53.808 53.9183 52.08C54.5583 50.3307 55.4969 48.8587 56.7343 47.664C57.9929 46.448 59.4863 45.84 61.2143 45.84C62.0889 45.84 62.7396 45.9893 63.1663 46.288C63.5929 46.5867 63.8063 46.9813 63.8063 47.472V47.696L64.1583 46H68.7663L66.4623 56.88C66.3983 57.1573 66.3663 57.424 66.3663 57.68C66.3663 58.6187 66.8249 59.088 67.7423 59.088C68.5529 59.088 69.4276 58.8 70.3663 58.224C71.3263 57.648 72.1583 56.9333 72.8623 56.08L71.0063 46H75.5183L76.7663 52.912C77.7263 51.888 78.4729 50.928 79.0063 50.032C79.5396 49.136 79.8063 48.4 79.8063 47.824C79.8063 47.632 79.7956 47.504 79.7743 47.44C79.4756 47.4827 79.2943 47.504 79.2303 47.504C78.6969 47.504 78.3129 47.344 78.0783 47.024C77.8436 46.6827 77.7263 46.2453 77.7263 45.712C77.7263 45.2427 77.8969 44.88 78.2383 44.624C78.5796 44.3467 79.0063 44.208 79.5183 44.208C80.2009 44.208 80.7343 44.4747 81.1183 45.008C81.5023 45.5413 81.6943 46.224 81.6943 47.056C81.6943 48.08 81.3316 49.1893 80.6063 50.384C79.9023 51.5573 78.7396 52.9867 77.1183 54.672L77.4063 56.272C77.4276 56.3787 77.4916 56.72 77.5983 57.296C77.7263 57.8507 77.9289 58.288 78.2063 58.608C78.4836 58.928 78.8463 59.088 79.2943 59.088C79.9129 59.088 80.4889 58.832 81.0223 58.32C81.5556 57.7867 81.9396 57.104 82.1743 56.272H83.5183C82.7289 58.576 81.7263 60.144 80.5103 60.976C79.3156 61.7867 78.1209 62.192 76.9263 62.192C75.9236 62.192 75.1449 61.8613 74.5903 61.2C74.0569 60.5387 73.5983 59.44 73.2143 57.904C70.9529 60.7627 68.4463 62.192 65.6943 62.192C64.7769 62.192 63.9769 61.9253 63.2943 61.392C62.6329 60.8587 62.2169 60.1227 62.0463 59.184C60.7236 61.1893 59.1236 62.192 57.2463 62.192ZM59.3263 59.088C59.8596 59.088 60.3823 58.8427 60.8943 58.352C61.4276 57.84 61.7903 57.1467 61.9823 56.272L63.5183 49.04C63.5183 48.7627 63.4116 48.496 63.1983 48.24C62.9849 47.9627 62.6543 47.824 62.2063 47.824C61.3529 47.824 60.5849 48.3253 59.9023 49.328C59.2196 50.3093 58.6863 51.504 58.3023 52.912C57.9183 54.2987 57.7263 55.5253 57.7263 56.592C57.7263 57.6587 57.8756 58.3413 58.1743 58.64C58.4943 58.9387 58.8783 59.088 59.3263 59.088ZM87.5315 44.272C86.8275 44.272 86.2302 44.0267 85.7395 43.536C85.2488 43.0453 85.0035 42.448 85.0035 41.744C85.0035 41.04 85.2488 40.4427 85.7395 39.952C86.2302 39.44 86.8275 39.184 87.5315 39.184C88.2355 39.184 88.8328 39.44 89.3235 39.952C89.8355 40.4427 90.0915 41.04 90.0915 41.744C90.0915 42.448 89.8355 43.0453 89.3235 43.536C88.8328 44.0267 88.2355 44.272 87.5315 44.272ZM85.3555 62.192C84.3315 62.192 83.4995 61.872 82.8595 61.232C82.2408 60.592 81.9315 59.632 81.9315 58.352C81.9315 57.8187 82.0168 57.1253 82.1875 56.272L84.3635 46H88.9715L86.6675 56.88C86.5822 57.2 86.5395 57.5413 86.5395 57.904C86.5395 58.3307 86.6355 58.64 86.8275 58.832C87.0408 59.0027 87.3822 59.088 87.8515 59.088C88.2355 59.088 88.5768 59.024 88.8755 58.896C88.7902 59.9627 88.4062 60.784 87.7235 61.36C87.0622 61.9147 86.2728 62.192 85.3555 62.192Z" fill="#959595"/>
<g clip-path="url(#clip0_2_24)">
<path d="M23.65 43.0569C23.4 42.3641 22.7 41.871 21.875 41.871H18.75V39.5226H11.25V41.871H8.125C7.3 41.871 6.6125 42.3641 6.35 43.0569L3.75 50.0903V59.4839C3.75 60.1297 4.3125 60.6581 5 60.6581H6.25C6.9375 60.6581 7.5 60.1297 7.5 59.4839V58.3097H22.5V59.4839C22.5 60.1297 23.0625 60.6581 23.75 60.6581H25C25.6875 60.6581 26.25 60.1297 26.25 59.4839V50.0903L23.65 43.0569ZM8.5625 44.2194H21.425L22.725 47.7419H7.2625L8.5625 44.2194ZM23.75 55.9613H6.25V50.4896L6.4 50.0903H23.6125L23.75 50.4896V55.9613Z" fill="#F2C935"/>
<path d="M9.375 54.7871C10.4105 54.7871 11.25 53.9986 11.25 53.0258C11.25 52.0531 10.4105 51.2645 9.375 51.2645C8.33947 51.2645 7.5 52.0531 7.5 53.0258C7.5 53.9986 8.33947 54.7871 9.375 54.7871Z" fill="#EDCB53"/>
<path d="M20.625 54.7871C21.6605 54.7871 22.5 53.9986 22.5 53.0258C22.5 52.0531 21.6605 51.2645 20.625 51.2645C19.5895 51.2645 18.75 52.0531 18.75 53.0258C18.75 53.9986 19.5895 54.7871 20.625 54.7871Z" fill="#EDCB53"/>
</g>
<defs>
<clipPath id="clip0_2_24">
<rect width="30" height="28.1806" fill="white" transform="translate(0 36)"/>
</clipPath>
</defs>
</svg>
