<svg width="14" height="18" viewBox="0 0 14 18" fill="none" xmlns="http://www.w3.org/2000/svg">
<path d="M13.917 5.00402C13.4255 1.44758 9.88147 -0.363248 6.10008 0.0607579C3.11051 0.39593 0.129924 2.81302 0.00619983 6.26934C-0.0691667 8.37934 0.529215 9.96185 2.53688 10.4073C3.40631 8.86865 2.25684 8.53233 2.07687 7.41771C1.34015 2.86249 7.33166 -0.248552 10.4697 2.93449C12.6427 5.13899 11.2109 11.9167 7.71072 11.2115C4.35785 10.5389 9.35283 5.1435 6.67708 4.08512C4.50181 3.22356 3.34671 6.71702 4.37809 8.45364C3.77297 11.4398 2.47054 14.2517 2.99803 17.996C4.70764 16.7542 5.28463 14.3799 5.75703 11.9021C6.61633 12.4251 7.07637 12.9661 8.17187 13.0505C12.2119 13.3642 14.4715 9.01709 13.917 5.00402Z" fill="white"/>
</svg>
