<svg width="15" height="15" viewBox="0 0 15 15" fill="none" xmlns="http://www.w3.org/2000/svg">
<g clip-path="url(#clip0_428_529)">
<rect x="15.2783" y="0.428833" width="10" height="10" transform="rotate(45 15.2783 0.428833)" fill="#272727"/>
<rect x="15.2783" y="4.71722" width="4" height="4" transform="rotate(45 15.2783 4.71722)" fill="#323232"/>
<rect x="7.5" y="-7.34937" width="10" height="10" transform="rotate(45 7.5 -7.34937)" fill="#272727"/>
<rect x="7.5" y="-3.06097" width="4" height="4" transform="rotate(45 7.5 -3.06097)" fill="#323232"/>
<rect x="-0.27832" y="0.428833" width="10" height="10" transform="rotate(45 -0.27832 0.428833)" fill="#272727"/>
<rect x="-0.27832" y="4.71722" width="4" height="4" transform="rotate(45 -0.27832 4.71722)" fill="#323232"/>
<rect x="7.5" y="8.20697" width="10" height="10" transform="rotate(45 7.5 8.20697)" fill="#272727"/>
<rect x="7.5" y="12.4954" width="4" height="4" transform="rotate(45 7.5 12.4954)" fill="#323232"/>
</g>
<defs>
<clipPath id="clip0_428_529">
<rect width="15" height="15" fill="white"/>
</clipPath>
</defs>
</svg>
