<svg width="93" height="17" viewBox="0 0 93 17" fill="none" xmlns="http://www.w3.org/2000/svg">
<path d="M8.7831 1.31111C8.69363 1.03402 8.3016 1.03402 8.21213 1.31111L6.78054 5.74453C6.74054 5.8684 6.62522 5.95234 6.49505 5.95234H1.85839C1.56822 5.95234 1.44709 6.32328 1.68133 6.49453L5.43567 9.2392C5.54017 9.31559 5.58388 9.45039 5.54411 9.57357L4.11083 14.0122C4.02148 14.2889 4.33862 14.5182 4.57337 14.3466L8.32056 11.6071C8.42601 11.53 8.56922 11.53 8.67467 11.6071L12.4219 14.3466C12.6566 14.5182 12.9737 14.2889 12.8844 14.0122L11.4511 9.57357C11.4113 9.45039 11.4551 9.31559 11.5596 9.2392L15.3139 6.49453C15.5481 6.32328 15.427 5.95234 15.1368 5.95234H10.5002C10.37 5.95234 10.2547 5.8684 10.2147 5.74453L8.7831 1.31111Z" fill="white"/>
<path d="M26.9473 1.31111C26.8579 1.03402 26.4658 1.03402 26.3764 1.31111L24.9448 5.74453C24.9048 5.8684 24.7895 5.95234 24.6593 5.95234H20.0226C19.7325 5.95234 19.6113 6.32328 19.8456 6.49453L23.5999 9.2392C23.7044 9.31559 23.7481 9.45039 23.7084 9.57357L22.2751 14.0122C22.1857 14.2889 22.5029 14.5182 22.7376 14.3466L26.4848 11.6071C26.5903 11.53 26.7335 11.53 26.8389 11.6071L30.5861 14.3466C30.8208 14.5182 31.138 14.2889 31.0486 14.0122L29.6154 9.57357C29.5756 9.45039 29.6193 9.31559 29.7238 9.2392L33.4781 6.49453C33.7124 6.32328 33.5913 5.95234 33.3011 5.95234H28.6644C28.5343 5.95234 28.4189 5.8684 28.3789 5.74453L26.9473 1.31111Z" fill="white"/>
<path d="M65.5464 1.31111C65.4569 1.03402 65.0649 1.03402 64.9754 1.31111L63.5438 5.74453C63.5038 5.8684 63.3885 5.95234 63.2583 5.95234H58.6217C58.3315 5.95234 58.2104 6.32328 58.4446 6.49453L62.1989 9.2392C62.3034 9.31559 62.3472 9.45039 62.3074 9.57357L60.8741 14.0122C60.7848 14.2889 61.1019 14.5182 61.3366 14.3466L65.0838 11.6071C65.1893 11.53 65.3325 11.53 65.4379 11.6071L69.1851 14.3466C69.4199 14.5182 69.737 14.2889 69.6477 14.0122L68.2144 9.57357C68.1746 9.45039 68.2183 9.31559 68.3228 9.2392L72.0772 6.49453C72.3114 6.32328 72.1903 5.95234 71.9001 5.95234H67.2634C67.1333 5.95234 67.018 5.8684 66.978 5.74453L65.5464 1.31111Z" fill="white"/>
<path d="M84.8459 1.31111C84.7564 1.03402 84.3644 1.03402 84.2749 1.31111L82.8433 5.74453C82.8033 5.8684 82.688 5.95234 82.5579 5.95234H77.9212C77.631 5.95234 77.5099 6.32328 77.7441 6.49453L81.4985 9.2392C81.603 9.31559 81.6467 9.45039 81.6069 9.57357L80.1736 14.0122C80.0843 14.2889 80.4014 14.5182 80.6362 14.3466L84.3834 11.6071C84.4888 11.53 84.632 11.53 84.7375 11.6071L88.4847 14.3466C88.7194 14.5182 89.0366 14.2889 88.9472 14.0122L87.5139 9.57357C87.4742 9.45039 87.5179 9.31559 87.6224 9.2392L91.3767 6.49453C91.6109 6.32328 91.4898 5.95234 91.1996 5.95234H86.563C86.4328 5.95234 86.3175 5.8684 86.2775 5.74453L84.8459 1.31111Z" fill="white"/>
<path d="M46.2469 1.31111C46.1574 1.03402 45.7654 1.03402 45.6759 1.31111L44.2443 5.74453C44.2043 5.8684 44.089 5.95234 43.9588 5.95234H39.3222C39.032 5.95234 38.9109 6.32328 39.1451 6.49453L42.8994 9.2392C43.0039 9.31559 43.0477 9.45039 43.0079 9.57357L41.5746 14.0122C41.4853 14.2889 41.8024 14.5182 42.0371 14.3466L45.7843 11.6071C45.8898 11.53 46.033 11.53 46.1384 11.6071L49.8856 14.3466C50.1204 14.5182 50.4375 14.2889 50.3482 14.0122L48.9149 9.57357C48.8751 9.45039 48.9188 9.31559 49.0233 9.2392L52.7777 6.49453C53.0119 6.32328 52.8908 5.95234 52.6006 5.95234H47.964C47.8338 5.95234 47.7185 5.8684 47.6785 5.74453L46.2469 1.31111Z" fill="white"/>
</svg>
