<svg width="18" height="15" viewBox="0 0 18 15" fill="none" xmlns="http://www.w3.org/2000/svg">
<path d="M18 1.72991C17.3375 2.02347 16.6266 2.22256 15.8798 2.31144C16.6424 1.85477 17.2261 1.13041 17.5028 0.269941C16.7875 0.692853 15.9978 0.999942 15.1565 1.16641C14.4828 0.447677 13.5244 0 12.4615 0C10.4223 0 8.76881 1.65344 8.76881 3.69156C8.76881 3.98062 8.80142 4.26294 8.86443 4.53291C5.79601 4.3788 3.07515 2.90871 1.25412 0.674853C0.935796 1.21927 0.754707 1.85362 0.754707 2.53077C0.754707 3.81191 1.40709 4.94233 2.39692 5.60368C1.79177 5.58345 1.22262 5.41697 0.724354 5.14027V5.18639C0.724354 6.9748 1.99762 8.46739 3.68592 8.80709C3.37659 8.89033 3.05042 8.93645 2.71297 8.93645C2.47453 8.93645 2.24394 8.91283 2.01786 8.86783C2.488 10.3357 3.85127 11.4031 5.46648 11.4324C4.20333 12.4222 2.61062 13.0104 0.880707 13.0104C0.582648 13.0104 0.289059 12.9925 0 12.9598C1.63433 14.0093 3.57459 14.6212 5.65995 14.6212C12.4525 14.6212 16.1655 8.99495 16.1655 4.11562L16.1531 3.63759C16.8786 3.12015 17.5062 2.47003 18 1.72991Z" fill="white"/>
</svg>
