<svg width="35" height="34" viewBox="0 0 35 34" fill="none" xmlns="http://www.w3.org/2000/svg">
<path d="M23.9474 28.5526C19.3237 28.5526 15.3263 25.9368 13.3368 22.1053H23.9474L25.7895 18.4211H12.1211C12.0289 17.8132 11.9737 17.2053 11.9737 16.5789C11.9737 15.9526 12.0289 15.3447 12.1211 14.7368H23.9474L25.7895 11.0526H13.3368C15.3263 7.22105 19.3421 4.60526 23.9474 4.60526C26.9132 4.60526 29.6395 5.69211 31.7395 7.49737L35 4.23684C32.0711 1.60263 28.1842 0 23.9474 0C16.7263 0 10.6105 4.62368 8.32632 11.0526H1.84211L0 14.7368H7.47895C7.40526 15.3447 7.36842 15.9526 7.36842 16.5789C7.36842 17.2053 7.40526 17.8132 7.47895 18.4211H1.84211L0 22.1053H8.32632C10.6105 28.5342 16.7263 33.1579 23.9474 33.1579C28.2026 33.1579 32.0711 31.5553 35 28.9211L31.7211 25.6605C29.6395 27.4658 26.9316 28.5526 23.9474 28.5526Z" fill="#272727"/>
</svg>
