<svg width="20" height="19" viewBox="0 0 20 19" fill="none" xmlns="http://www.w3.org/2000/svg">
<path d="M9.99169 1.65591C5.39169 1.65591 1.66669 5.16284 1.66669 9.48387C1.66669 13.8049 5.39169 17.3118 9.99169 17.3118C14.6 17.3118 18.3334 13.8049 18.3334 9.48387C18.3334 5.16284 14.6 1.65591 9.99169 1.65591ZM15.7667 6.35269H13.3084C13.0417 5.37419 12.6584 4.43484 12.1584 3.56594C13.6917 4.0591 14.9667 5.06108 15.7667 6.35269ZM10 3.25282C10.6917 4.19217 11.2334 5.23329 11.5917 6.35269H8.40835C8.76669 5.23329 9.30835 4.19217 10 3.25282ZM3.55002 11.0495C3.41669 10.5485 3.33335 10.024 3.33335 9.48387C3.33335 8.94374 3.41669 8.41927 3.55002 7.91828H6.36669C6.30002 8.43493 6.25002 8.95157 6.25002 9.48387C6.25002 10.0162 6.30002 10.5328 6.36669 11.0495H3.55002ZM4.23335 12.6151H6.69169C6.95835 13.5935 7.34169 14.5329 7.84169 15.4018C6.30835 14.9086 5.03335 13.9145 4.23335 12.6151ZM6.69169 6.35269H4.23335C5.03335 5.05325 6.30835 4.0591 7.84169 3.56594C7.34169 4.43484 6.95835 5.37419 6.69169 6.35269ZM10 15.7149C9.30835 14.7756 8.76669 13.7345 8.40835 12.6151H11.5917C11.2334 13.7345 10.6917 14.7756 10 15.7149ZM11.95 11.0495H8.05002C7.97502 10.5328 7.91669 10.0162 7.91669 9.48387C7.91669 8.95157 7.97502 8.4271 8.05002 7.91828H11.95C12.025 8.4271 12.0834 8.95157 12.0834 9.48387C12.0834 10.0162 12.025 10.5328 11.95 11.0495ZM12.1584 15.4018C12.6584 14.5329 13.0417 13.5935 13.3084 12.6151H15.7667C14.9667 13.9067 13.6917 14.9086 12.1584 15.4018ZM13.6334 11.0495C13.7 10.5328 13.75 10.0162 13.75 9.48387C13.75 8.95157 13.7 8.43493 13.6334 7.91828H16.45C16.5834 8.41927 16.6667 8.94374 16.6667 9.48387C16.6667 10.024 16.5834 10.5485 16.45 11.0495H13.6334Z" fill="white"/>
</svg>
