<svg width="18" height="24" viewBox="0 0 18 24" fill="none" xmlns="http://www.w3.org/2000/svg">
<path d="M9.315 4.68651C8.03419 4.68651 6.98625 3.63204 6.98625 2.34325C6.98625 1.05446 8.03419 0 9.315 0C10.5958 0 11.6438 1.05446 11.6438 2.34325C11.6438 3.63204 10.5958 4.68651 9.315 4.68651ZM15.1369 0H17.4656C17.4656 3.16339 16.3828 5.16687 14.7876 6.44395C14.2054 6.9126 13.5068 7.26408 12.8081 7.49841V23.4325H10.4794V16.4028H8.15063V23.4325H5.82188V9.49018C5.47256 9.60734 5.23969 9.7245 5.12325 9.84166C4.50613 10.322 3.49313 11.0484 3.49313 14.0595H1.16438C1.16438 11.646 1.57191 9.63077 3.62121 7.86161C4.90202 6.80715 6.98625 5.85813 9.315 5.85813C11.6438 5.85813 12.4355 5.31918 13.367 4.61621C13.9259 4.15927 15.1369 3.23369 15.1369 0ZM0 16.4028H3.49313V23.4325H0V16.4028Z" fill="white"/>
</svg>
