<svg width="20" height="20" viewBox="0 0 20 20" fill="none" xmlns="http://www.w3.org/2000/svg">
<path d="M9.99999 5C9.08333 5 8.33333 4.25 8.33333 3.33333C8.33333 2.41667 9.08333 1.66667 9.99999 1.66667C10.9167 1.66667 11.6667 2.41667 11.6667 3.33333C11.6667 4.25 10.9167 5 9.99999 5ZM14.1667 1.66667H15.8333C15.8333 3.91667 15.0583 5.34167 13.9167 6.25C13.5 6.58333 13 6.83333 12.5 7V18.3333H10.8333V13.3333H9.16666V18.3333H7.49999V8.41667C7.24999 8.5 7.08333 8.58333 6.99999 8.66667C6.55833 9.00833 5.83333 9.525 5.83333 11.6667H4.16666C4.16666 9.95 4.45833 8.51667 5.92499 7.25834C6.84166 6.50834 8.33333 5.83333 9.99999 5.83333C11.6667 5.83333 12.2333 5.45 12.9 4.95C13.3 4.625 14.1667 3.96667 14.1667 1.66667ZM3.33333 13.3333H5.83333V18.3333H3.33333V13.3333Z" fill="#767575"/>
</svg>
