<svg width="20" height="20" viewBox="0 0 20 20" fill="none" xmlns="http://www.w3.org/2000/svg">
<path d="M10 3.33333C11.6083 3.33333 14.1667 4.5 14.1667 7.625C14.1667 9.425 12.7333 11.5167 10 13.725C7.26667 11.5167 5.83334 9.41666 5.83334 7.625C5.83334 4.5 8.39167 3.33333 10 3.33333ZM10 1.66666C7.27501 1.66666 4.16667 3.71666 4.16667 7.625C4.16667 10.225 6.10834 12.9667 10 15.8333C13.8917 12.9667 15.8333 10.225 15.8333 7.625C15.8333 3.71666 12.725 1.66666 10 1.66666Z" fill="#767575"/>
<path d="M10 5.83334C9.08334 5.83334 8.33334 6.58334 8.33334 7.5C8.33334 8.41667 9.08334 9.16667 10 9.16667C10.442 9.16667 10.866 8.99107 11.1785 8.67851C11.4911 8.36595 11.6667 7.94203 11.6667 7.5C11.6667 7.05798 11.4911 6.63405 11.1785 6.32149C10.866 6.00893 10.442 5.83334 10 5.83334ZM4.16667 16.6667H15.8333V18.3333H4.16667V16.6667Z" fill="#767575"/>
</svg>
