<svg width="20" height="20" viewBox="0 0 20 20" fill="none" xmlns="http://www.w3.org/2000/svg">
<path d="M9.99999 0.833333C6.32499 0.833333 3.33333 3.825 3.33333 7.5C3.33333 12.1417 9.13333 18.6167 9.38333 18.8917L9.99999 19.575L10.6167 18.8917C10.8667 18.6167 16.6667 12.1417 16.6667 7.5C16.6667 3.825 13.675 0.833333 9.99999 0.833333ZM9.99999 17.0583C8.18333 14.8833 4.99999 10.45 4.99999 7.5C4.99999 4.74167 7.24166 2.5 9.99999 2.5C12.7583 2.5 15 4.74167 15 7.5C15 10.6917 11.4583 15.3 9.99999 17.0583ZM8.72499 9.30833L7.25833 7.83333L6.07499 9.01667L8.72499 11.6667L13.7333 6.65833L12.5583 5.475L8.72499 9.30833Z" fill="#767575"/>
</svg>
