<svg width="38" height="44" viewBox="0 0 38 44" fill="none" xmlns="http://www.w3.org/2000/svg">
<path d="M25 0H12.5V4.16667H25V0ZM16.6667 27.0833H20.8333V14.5833H16.6667V27.0833ZM33.3958 13.3125L36.3542 10.3542C35.4583 9.29167 34.4792 8.29167 33.4167 7.41667L30.4583 10.375C27.2292 7.79167 23.1667 6.25 18.75 6.25C8.39583 6.25 0 14.6458 0 25C0 35.3542 8.375 43.75 18.75 43.75C29.125 43.75 37.5 35.3542 37.5 25C37.5 20.5833 35.9583 16.5208 33.3958 13.3125ZM18.75 39.5833C10.6875 39.5833 4.16667 33.0625 4.16667 25C4.16667 16.9375 10.6875 10.4167 18.75 10.4167C26.8125 10.4167 33.3333 16.9375 33.3333 25C33.3333 33.0625 26.8125 39.5833 18.75 39.5833Z" fill="#272727"/>
</svg>
